PathFileType	4	(X/Y/Z)	C:\Users\Basilio\Documents\Thesis Gigler\squatting_fais\c3dfiles\073\SLS_back_pre2\markers_experimental.trc
DataRate	CameraRate	NumFrames	NumMarkers	Units	OrigDataRate	OrigDataStartFrame	OrigNumFrames
200.000000	200.000000	4	61	mm	200.000000	1108	1267
Frame#	Time	FHD			LBHD			RBHD			C7			T10			CLAV			LSHO			LUUPA			LMUPA			LDUPA			LLEP			LMEP			LRAD			LUL			LRFIN			RSHO			RUPA1			RMUPA			RDUPA			RLEP			RMEP			RRAD			RUL			RUFIN			LASI			RASI			USACR			LSACR			RSACR			LTHI1			LTHI2			LTHI3			LTHI4			LLFC			LMFC			LTIB1			LTIB2			LTIB3			LTIB4			LLMAL			LMMAL			LHEE			LMT1			LMT2			LMT5			RTHI			RTHI2			RTHI3			RTHI4			RLFC			RTIB1			RTIB2			RTIB3			RTIB4			RLMAL			RMMAL			RHEE			RMT1			RMT2			RMT5			RMFC			
		X1	Y1	Z1	X2	Y2	Z2	X3	Y3	Z3	X4	Y4	Z4	X5	Y5	Z5	X6	Y6	Z6	X7	Y7	Z7	X8	Y8	Z8	X9	Y9	Z9	X10	Y10	Z10	X11	Y11	Z11	X12	Y12	Z12	X13	Y13	Z13	X14	Y14	Z14	X15	Y15	Z15	X16	Y16	Z16	X17	Y17	Z17	X18	Y18	Z18	X19	Y19	Z19	X20	Y20	Z20	X21	Y21	Z21	X22	Y22	Z22	X23	Y23	Z23	X24	Y24	Z24	X25	Y25	Z25	X26	Y26	Z26	X27	Y27	Z27	X28	Y28	Z28	X29	Y29	Z29	X30	Y30	Z30	X31	Y31	Z31	X32	Y32	Z32	X33	Y33	Z33	X34	Y34	Z34	X35	Y35	Z35	X36	Y36	Z36	X37	Y37	Z37	X38	Y38	Z38	X39	Y39	Z39	X40	Y40	Z40	X41	Y41	Z41	X42	Y42	Z42	X43	Y43	Z43	X44	Y44	Z44	X45	Y45	Z45	X46	Y46	Z46	X47	Y47	Z47	X48	Y48	Z48	X49	Y49	Z49	X50	Y50	Z50	X51	Y51	Z51	X52	Y52	Z52	X53	Y53	Z53	X54	Y54	Z54	X55	Y55	Z55	X56	Y56	Z56	X57	Y57	Z57	X58	Y58	Z58	X59	Y59	Z59	X60	Y60	Z60	X61	Y61	Z61	

1109	5.54	-157.151107788086	1688.564331054688	-753.6343994140626	-291.5623779296876	1655.3896484375	-778.091247558594	-314.0580139160157	1636.49169921875	-644.5407714843751	-343.8422241210938	1534.947875976563	-706.2766113281251	-405.1729431152345	1202.999389648438	-719.6369628906251	-217.9811706542969	1452.287841796875	-709.8167114257814	-252.905746459961	1502.526733398438	-850.9624023437502	-168.3709411621094	1432.465698242188	-945.6401977539065	-128.4770202636719	1454.20703125	-923.0549926757815	-104.4019927978516	1409.204345703125	-956.334411621094	1.106372833251953	1389.021850585938	-959.267272949219	-1.246535420417786	1331.424438476563	-918.250915527344	255.7757263183594	1423.208740234375	-839.0781860351565	261.8908996582032	1421.69287109375	-913.686218261719	337.3842163085938	1436.296875	-828.9412841796877	-231.303207397461	1486.837768554688	-562.7095947265626	-140.6138000488282	1377.548461914063	-468.3486633300782	-100.6083297729492	1399.258666992188	-483.8082580566407	-78.16606903076173	1347.565673828125	-463.1245422363282	12.90252208709717	1328.322021484375	-464.2090454101564	7.944809913635256	1276.628051757813	-529.6181030273439	nan	nan	nan	272.6317443847657	1371.211059570313	-511.7731323242189	352.7506103515626	1391.590698242188	-590.3911132812501	-251.7283020019532	1031.102172851563	-850.5059814453127	-244.9282684326172	1027.410278320313	-602.1560058593751	-429.143524169922	1100.546142578125	-721.6212768554689	-442.7581176757814	1072.825439453125	-750.4358520507814	-446.6106872558595	1070.453369140625	-694.3533325195314	-229.4709167480469	716.9827880859376	-911.7730712890627	-177.3339996337891	650.9966430664064	-896.7590942382815	-137.9018249511719	663.3984985351564	-869.4590454101565	-195.6680755615235	593.9676513671876	-888.312927246094	-198.7010650634766	548.0148925781251	-888.7919921875002	-202.8714904785157	543.2578735351564	-753.5393066406251	-339.1824035644532	426.5002746582032	-835.679382324219	-397.3536987304689	465.379608154297	-888.407165527344	-390.5093994140626	427.613250732422	-867.4608154296877	-463.3289489746095	402.3009033203126	-832.739196777344	-595.1295166015626	419.9866943359376	-859.5749511718752	-567.0783691406251	421.1804504394532	-774.4262695312502	-638.9374389648439	472.2100219726564	-818.6878662109377	-589.0765991210939	257.1577148437501	-768.3908691406252	-593.6500244140626	251.2577819824219	-804.5283203125002	-623.6600341796876	276.9206542968751	-859.8511352539065	-356.8587341308594	799.6458129882815	-547.3299560546876	-325.6684265136719	741.1519165039064	-549.8725585937501	-292.2019042968751	740.3750000000001	-550.3022460937501	-356.7210998535157	668.4423828125001	-576.7318725585939	-346.3806762695313	516.7307739257814	-603.4185791015626	-298.9690856933594	362.7406616210938	-705.3491210937501	-322.7667541503907	274.2483825683594	-647.3586425781251	-297.1128540039063	277.3104858398438	-688.2809448242189	-313.4499816894532	235.4440460205079	-725.8416137695314	-362.0111389160157	100.4000701904297	-688.2645874023439	-355.9085083007813	129.2382507324219	-771.4169921875002	-431.4538879394532	82.05767822265626	-744.6551513671876	-206.5109252929688	55.00957489013673	-761.0417480468751	-206.0697937011719	51.39128494262697	-719.9179687500001	-248.5479888916016	34.7625846862793	-670.7800903320314	-338.7051086425782	515.9960327148439	-735.0078735351564	
1110	5.545	-157.619857788086	1688.651000976563	-753.4749145507814	-291.9143066406251	1655.430297851563	-777.922546386719	-314.3842468261719	1636.477783203125	-644.4310913085939	-344.1355590820313	1534.938598632813	-706.2009887695314	-405.1878967285157	1202.916137695313	-719.5753173828126	-218.234359741211	1452.308837890625	-709.7438354492189	-253.1294097900391	1502.535400390625	-850.8978271484377	-168.6016693115235	1432.4345703125	-945.533142089844	-128.5873565673828	1454.180908203125	-923.065368652344	-104.5959777832032	1409.176025390625	-956.2156982421877	0.8861918449401858	1388.986938476563	-959.1600341796877	-1.456454157829285	1331.3583984375	-918.1340332031252	255.5536346435547	1423.135620117188	-838.8847656250002	261.6289367675782	1421.656005859375	-913.525573730469	337.1654052734376	1436.267578125	-828.828063964844	-231.5511779785157	1486.814208984375	-562.5746459960939	-140.900619506836	1377.411743164063	-468.2774047851564	-100.8680572509766	1399.13720703125	-483.7594604492189	-78.42069244384767	1347.420043945313	-463.0781250000001	12.63021564483643	1328.385009765625	-464.2660522460939	7.64837694168091	1276.467407226563	-529.6312255859376	nan	nan	nan	272.3901062011719	1371.058959960938	-511.7437744140626	352.4759826660157	1391.501708984375	-590.4060668945314	-251.5642852783204	1031.070434570313	-850.2580566406252	-245.0065002441407	1027.360961914063	-601.8536987304689	-429.1168212890626	1100.423217773438	-721.6751708984376	-442.9216308593751	1072.7666015625	-750.5086669921876	-446.672332763672	1070.333862304688	-694.4926147460939	-229.2906799316407	717.0374755859376	-911.6661376953127	-177.0546875	651.0601806640626	-896.6307373046877	-137.4814147949219	663.5337524414064	-869.3199462890627	-195.3419036865235	594.0264892578126	-888.162292480469	-198.2949676513672	548.0996093750001	-888.6051025390627	-202.5057373046876	543.3585205078126	-753.3642578125001	-338.6179199218751	426.582733154297	-835.3005371093752	-396.8455505371095	465.3218688964845	-888.2147216796877	-390.0553283691407	427.513397216797	-867.2099609375002	-462.8570556640626	402.2122192382814	-832.5075683593752	-594.7759399414064	419.7868957519532	-859.4167480468752	-566.6345214843751	421.0016479492189	-774.1779785156252	-638.5092163085939	471.9624328613282	-818.3726806640627	-588.7375488281251	257.0130920410157	-767.4507446289064	-593.0665893554689	251.1026000976563	-804.2227783203127	-623.1766357421876	276.6719665527344	-859.403503417969	-356.8720703125001	799.5848388671877	-547.3775634765626	-325.6670532226563	741.1248168945314	-549.8645629882814	-292.2195739746094	740.3175048828126	-550.2265014648439	-356.6439819335938	668.3887939453126	-576.7442016601564	-346.2195129394532	516.6686401367189	-603.4841918945314	-298.8702697753907	362.6581420898438	-705.4221191406251	-322.7103271484376	274.1684875488282	-647.3874511718751	-297.0162048339844	277.2283935546876	-688.3272094726564	-313.4090270996094	235.3825836181641	-725.8955078125001	-361.9974975585938	100.4099426269532	-688.2719116210939	-355.9141540527344	129.2290191650391	-771.4366455078127	-431.4671020507814	82.01344299316408	-744.6820678710939	-206.5230712890626	55.00650787353517	-761.0683593750001	-206.0636749267579	51.33596420288087	-719.9572143554689	-248.5759582519532	34.74877548217774	-670.7890625000001	-338.2501525878907	515.9093627929689	-735.0593872070314	
1111	5.55	-158.0141754150391	1688.737426757813	-753.2040405273439	-292.2638244628907	1655.483520507813	-777.7239379882815	-314.7120056152344	1636.423950195313	-644.3621215820314	-344.4293823242188	1534.9228515625	-706.1159057617189	-405.214080810547	1202.84326171875	-719.6170043945314	-217.9850463867188	1452.629760742188	-709.4984130859376	-253.4083557128907	1502.526977539063	-850.8711547851565	-168.7063446044922	1432.434936523438	-945.4798583984377	-128.8087005615235	1454.099365234375	-922.9909667968752	-104.868392944336	1409.142700195313	-956.210388183594	0.6328262090682985	1388.960083007813	-959.070007324219	-1.635953426361084	1331.345581054688	-918.0541992187502	255.3626251220704	1423.113159179688	-838.7354736328127	261.4320373535157	1421.576538085938	-913.421813964844	337.3284912109376	1436.18701171875	-828.9478149414065	-231.8214874267579	1486.741821289063	-562.4350585937501	-141.1807861328125	1377.127075195313	-468.0953369140626	-101.1336517333985	1399.012573242188	-483.6550598144532	-78.6639862060547	1347.270751953125	-463.0095214843751	12.36637592315674	1328.037963867188	-464.270965576172	7.324907302856447	1276.358154296875	-529.6141357421876	nan	nan	nan	272.1057739257813	1370.936401367188	-511.7552795410157	352.1716308593751	1391.40478515625	-590.3850097656251	-251.4001464843751	1031.015014648438	-850.0609130859377	-245.0590515136719	1027.336059570313	-601.5768432617189	-429.1279296875001	1100.317138671875	-721.7307128906251	-442.6716308593751	1072.60205078125	-750.6035766601564	-446.6850585937501	1070.1904296875	-694.5585937500001	-228.9638977050782	717.1116943359376	-911.5556640625002	-176.8307647705078	651.1115112304689	-896.5450439453127	-137.2252502441407	663.6736450195314	-869.1890869140627	-195.009994506836	594.1187133789064	-888.052917480469	-197.9174499511719	548.1259765625001	-888.3991699218752	-202.1347808837891	543.4962768554689	-753.1937866210939	-338.1669616699219	426.642303466797	-835.0864257812502	-396.5350646972657	465.2226562500001	-888.0031738281252	-389.644500732422	427.3596191406251	-867.025573730469	-462.386688232422	402.0858764648439	-832.1611938476565	-594.2655639648439	419.614715576172	-859.0418090820315	-566.1671752929689	420.8161010742189	-773.9149169921877	-638.0852661132814	471.7151184082032	-818.087585449219	-587.9763793945314	256.8754577636719	-767.1920166015626	-592.6990966796876	250.736312866211	-803.9914550781252	-622.4851684570314	276.3832702636719	-859.0134277343752	-356.8703002929688	799.5125122070315	-547.3933105468751	-325.6053771972657	741.1040649414064	-549.8806762695314	-292.1487731933594	740.3256225585939	-550.2125854492189	-356.5306396484376	668.3350219726564	-576.7777709960939	-346.0180664062501	516.6442260742189	-603.4827270507814	-298.5631103515626	362.6145019531251	-705.5064697265626	-322.6254577636719	274.1309204101563	-647.4649047851564	-296.9025268554688	277.1466979980469	-688.3723754882814	-313.3014831542969	235.3455047607422	-725.9013061523439	-361.9945678710938	100.3971252441407	-688.3120117187501	-355.9308776855469	129.2003936767578	-771.419128417969	-431.4415588378907	82.00239562988283	-744.7349243164064	-206.5118408203126	54.97509384155275	-761.0794067382814	-206.0640869140626	51.35169982910158	-719.9682006835939	-248.5762786865235	34.74774551391602	-670.7881469726564	-337.8258972167969	515.9031982421876	-735.1533203125001	
1112	5.555	-158.40869140625	1688.839965820313	-752.8742065429689	-292.5787048339844	1655.53759765625	-777.5277099609377	-315.0809326171876	1636.361206054688	-644.1710205078126	-344.7351074218751	1534.8916015625	-706.0244140625001	-405.2750244140626	1202.770141601563	-719.5633544921876	-218.2933807373047	1452.615112304688	-709.3743286132814	-253.5650787353516	1502.476684570313	-850.7811279296877	-168.9161071777344	1432.328369140625	-945.3050537109377	-128.9652252197266	1454.07861328125	-922.851501464844	-105.0146179199219	1409.023681640625	-956.1265869140627	0.5114428997039796	1388.86328125	-959.0010986328127	-1.855189442634583	1331.305297851563	-917.9448852539065	255.1196594238282	1423.023681640625	-838.5676269531252	261.3107910156251	1421.491821289063	-913.242614746094	336.6488952636719	1436.133056640625	-828.4018554687502	-232.0696716308594	1486.68603515625	-562.2940673828126	-141.3691711425782	1377.1591796875	-468.2944641113282	-101.4001235961914	1398.909423828125	-483.5729064941407	-78.90578460693361	1347.13818359375	-462.9608459472657	12.10085010528565	1327.921752929688	-464.2208557128907	7.033551692962648	1276.280517578125	-529.6066894531251	nan	nan	nan	271.8093261718751	1370.76513671875	-511.685272216797	351.9064025878907	1391.279663085938	-590.3694458007814	-251.2422485351563	1030.989013671875	-849.9838867187502	-245.1273040771485	1027.272827148438	-601.3204345703126	-429.0856933593751	1100.202880859375	-721.7390747070314	-442.7086486816407	1072.506713867188	-750.6516723632814	-446.7289123535157	1070.0263671875	-694.6287231445314	-228.6682128906251	717.2117919921876	-911.3975830078127	-176.544662475586	651.1777343750001	-896.3800048828127	-136.968002319336	663.7536621093751	-869.0606689453127	-194.6528930664063	594.2255249023439	-887.8956298828127	-197.5807800292969	548.2343139648439	-888.3159179687502	-201.7492370605469	543.5165405273439	-753.0555419921876	-337.6806335449219	426.5984802246095	-834.860290527344	-396.199188232422	465.1802978515626	-887.8077392578127	-389.2850646972657	427.1660461425782	-866.6826782226565	-461.894256591797	401.9582824707032	-831.902038574219	-593.8640136718751	419.390838623047	-858.758239746094	-565.7262573242189	420.6546936035157	-773.5933837890627	-637.6629028320314	471.4695129394532	-817.7993164062502	-587.5765380859376	256.7215270996094	-766.6868896484376	-592.1142578125001	250.5454254150391	-803.810485839844	-621.9111938476564	276.2245788574219	-858.6805419921877	-356.8552551269532	799.4546508789065	-547.4120483398439	-325.5764770507813	741.0610351562501	-549.8894653320314	-292.0632934570313	740.2710571289064	-550.1835937500001	-356.3473815917969	668.2697143554689	-576.7933349609376	-345.7389221191407	516.6138305664064	-603.5487060546876	-298.4263305664063	362.5135192871094	-705.5272216796876	-322.5578002929688	274.0788269042969	-647.4582519531251	-296.7939453125001	277.0492248535157	-688.3386840820314	-313.2743530273438	235.2781829833985	-725.9458618164064	-362.0029296875001	100.3825073242188	-688.3144531250001	-355.9684448242188	129.1976013183594	-771.4497680664065	-431.4610900878907	82.00170898437501	-744.7351074218751	-206.5122375488282	54.94532394409181	-761.0638427734376	-206.0559387207032	51.36986160278322	-719.9686279296876	-248.5755767822266	34.74808502197266	-670.7888793945314	-337.4542541503907	515.8766479492189	-735.1611938476564	
